<mxfile host="Electron" agent="Mozilla/5.0 (Windows NT 10.0; Win64; x64) AppleWebKit/537.36 (KHTML, like Gecko) draw.io/26.2.2 Chrome/134.0.6998.178 Electron/35.1.2 Safari/537.36" version="26.2.2">
  <diagram name="Page-1" id="ip8cNLf3F-QhdHnudOoA">
    <mxGraphModel dx="6020" dy="4103" grid="1" gridSize="10" guides="1" tooltips="1" connect="1" arrows="1" fold="1" page="1" pageScale="1" pageWidth="850" pageHeight="1100" math="0" shadow="0">
      <root>
        <mxCell id="0" />
        <mxCell id="1" parent="0" />
        <mxCell id="owQZtKoprVOSR1B6ug3N-1" value="&lt;pre style=&quot;font-family: &amp;quot;JetBrains Mono&amp;quot;, monospace; font-size: 12pt;&quot;&gt;&lt;div style=&quot;background-color:#1e1e1e;color:#dcdcdc&quot;&gt;&lt;pre style=&quot;font-family:&#39;JetBrains Mono&#39;,monospace;font-size:12.0pt;&quot;&gt;BuildBody&lt;/pre&gt;&lt;/div&gt;&lt;/pre&gt;" style="text;html=1;align=center;verticalAlign=middle;resizable=0;points=[];autosize=1;strokeColor=none;fillColor=none;" vertex="1" parent="1">
          <mxGeometry x="-257.5" y="-30" width="100" height="60" as="geometry" />
        </mxCell>
        <mxCell id="owQZtKoprVOSR1B6ug3N-3" value="begin" style="strokeWidth=2;html=1;shape=mxgraph.flowchart.terminator;whiteSpace=wrap;" vertex="1" parent="1">
          <mxGeometry x="-465" y="50" width="120" height="60" as="geometry" />
        </mxCell>
        <mxCell id="owQZtKoprVOSR1B6ug3N-6" value="&lt;pre style=&quot;font-family: &amp;quot;JetBrains Mono&amp;quot;, monospace; font-size: 12pt;&quot;&gt;input: List&amp;lt;Dictionary&amp;lt;&lt;span style=&quot;font-size: 12pt; background-color: rgb(30, 30, 30); white-space-collapse: collapse; color: rgb(86, 156, 214);&quot;&gt;string&lt;/span&gt;&lt;span style=&quot;font-size: 12pt; background-color: rgb(30, 30, 30); color: rgb(220, 220, 220); white-space-collapse: collapse;&quot;&gt;, &lt;/span&gt;&lt;span style=&quot;font-size: 12pt; background-color: rgb(30, 30, 30); white-space-collapse: collapse; color: rgb(86, 156, 214);&quot;&gt;bool&lt;/span&gt;&lt;span style=&quot;font-size: 12pt; background-color: rgb(30, 30, 30); color: rgb(220, 220, 220); white-space-collapse: collapse;&quot;&gt;&amp;gt;&amp;gt; options&lt;/span&gt;&lt;/pre&gt;" style="text;html=1;align=center;verticalAlign=middle;resizable=0;points=[];autosize=1;strokeColor=none;fillColor=none;" vertex="1" parent="1">
          <mxGeometry x="-260" y="20" width="420" height="60" as="geometry" />
        </mxCell>
        <mxCell id="owQZtKoprVOSR1B6ug3N-7" value="&lt;pre style=&quot;font-family: &amp;quot;JetBrains Mono&amp;quot;, monospace; font-size: 12pt;&quot;&gt;output: void&lt;/pre&gt;" style="text;html=1;align=center;verticalAlign=middle;resizable=0;points=[];autosize=1;strokeColor=none;fillColor=none;" vertex="1" parent="1">
          <mxGeometry x="-260" y="70" width="130" height="60" as="geometry" />
        </mxCell>
        <mxCell id="owQZtKoprVOSR1B6ug3N-53" style="edgeStyle=orthogonalEdgeStyle;rounded=0;orthogonalLoop=1;jettySize=auto;html=1;exitX=1;exitY=0.5;exitDx=0;exitDy=0;exitPerimeter=0;entryX=0.5;entryY=0;entryDx=0;entryDy=0;" edge="1" parent="1" source="owQZtKoprVOSR1B6ug3N-12" target="owQZtKoprVOSR1B6ug3N-52">
          <mxGeometry relative="1" as="geometry" />
        </mxCell>
        <mxCell id="owQZtKoprVOSR1B6ug3N-54" value="yes" style="edgeLabel;html=1;align=center;verticalAlign=middle;resizable=0;points=[];" vertex="1" connectable="0" parent="owQZtKoprVOSR1B6ug3N-53">
          <mxGeometry x="-0.3243" y="-2" relative="1" as="geometry">
            <mxPoint as="offset" />
          </mxGeometry>
        </mxCell>
        <mxCell id="owQZtKoprVOSR1B6ug3N-209" style="edgeStyle=orthogonalEdgeStyle;rounded=0;orthogonalLoop=1;jettySize=auto;html=1;exitX=0.5;exitY=1;exitDx=0;exitDy=0;exitPerimeter=0;" edge="1" parent="1" source="owQZtKoprVOSR1B6ug3N-12" target="owQZtKoprVOSR1B6ug3N-164">
          <mxGeometry relative="1" as="geometry" />
        </mxCell>
        <mxCell id="owQZtKoprVOSR1B6ug3N-210" value="no" style="edgeLabel;html=1;align=center;verticalAlign=middle;resizable=0;points=[];" vertex="1" connectable="0" parent="owQZtKoprVOSR1B6ug3N-209">
          <mxGeometry x="-0.6379" y="4" relative="1" as="geometry">
            <mxPoint as="offset" />
          </mxGeometry>
        </mxCell>
        <mxCell id="owQZtKoprVOSR1B6ug3N-12" value="&lt;div style=&quot;background-color:#1e1e1e;color:#dcdcdc&quot;&gt;&lt;pre style=&quot;font-family:&#39;JetBrains Mono&#39;,monospace;font-size:12.0pt;&quot;&gt;&lt;div&gt;&lt;pre style=&quot;font-family:&#39;JetBrains Mono&#39;,monospace;font-size:12.0pt;&quot;&gt;options.Count == &lt;span style=&quot;color:#b5cea8;&quot;&gt;0&lt;/span&gt;&lt;/pre&gt;&lt;/div&gt;&lt;/pre&gt;&lt;/div&gt;" style="strokeWidth=2;html=1;shape=mxgraph.flowchart.decision;whiteSpace=wrap;" vertex="1" parent="1">
          <mxGeometry x="-818.75" y="200" width="827.5" height="100" as="geometry" />
        </mxCell>
        <mxCell id="owQZtKoprVOSR1B6ug3N-32" value="&lt;pre style=&quot;font-family: &amp;quot;JetBrains Mono&amp;quot;, monospace; font-size: 12pt;&quot;&gt;&lt;div style=&quot;background-color:#1e1e1e;color:#dcdcdc&quot;&gt;&lt;pre style=&quot;font-family:&#39;JetBrains Mono&#39;,monospace;font-size:12.0pt;&quot;&gt;Table&lt;/pre&gt;&lt;/div&gt;&lt;/pre&gt;" style="text;html=1;align=center;verticalAlign=middle;resizable=0;points=[];autosize=1;strokeColor=none;fillColor=none;" vertex="1" parent="1">
          <mxGeometry x="-107.5" y="-1050" width="70" height="60" as="geometry" />
        </mxCell>
        <mxCell id="owQZtKoprVOSR1B6ug3N-33" style="edgeStyle=orthogonalEdgeStyle;rounded=0;orthogonalLoop=1;jettySize=auto;html=1;exitX=0.5;exitY=1;exitDx=0;exitDy=0;exitPerimeter=0;entryX=0.5;entryY=0;entryDx=0;entryDy=0;" edge="1" parent="1" source="owQZtKoprVOSR1B6ug3N-34" target="owQZtKoprVOSR1B6ug3N-36">
          <mxGeometry relative="1" as="geometry" />
        </mxCell>
        <mxCell id="owQZtKoprVOSR1B6ug3N-34" value="begin" style="strokeWidth=2;html=1;shape=mxgraph.flowchart.terminator;whiteSpace=wrap;" vertex="1" parent="1">
          <mxGeometry x="-305" y="-970" width="120" height="60" as="geometry" />
        </mxCell>
        <mxCell id="owQZtKoprVOSR1B6ug3N-35" style="edgeStyle=orthogonalEdgeStyle;rounded=0;orthogonalLoop=1;jettySize=auto;html=1;exitX=0.5;exitY=1;exitDx=0;exitDy=0;entryX=0.5;entryY=0;entryDx=0;entryDy=0;" edge="1" parent="1" source="owQZtKoprVOSR1B6ug3N-36" target="owQZtKoprVOSR1B6ug3N-39">
          <mxGeometry relative="1" as="geometry" />
        </mxCell>
        <mxCell id="owQZtKoprVOSR1B6ug3N-36" value="&lt;div style=&quot;background-color: rgb(30, 30, 30); color: rgb(220, 220, 220);&quot;&gt;&lt;pre style=&quot;font-family:&#39;JetBrains Mono&#39;,monospace;font-size:12.0pt;&quot;&gt;&lt;pre style=&quot;font-family:&#39;JetBrains Mono&#39;,monospace;font-size:12.0pt;&quot;&gt;&lt;pre style=&quot;font-family:&#39;JetBrains Mono&#39;,monospace;font-size:12.0pt;&quot;&gt;&lt;pre style=&quot;font-family:&#39;JetBrains Mono&#39;,monospace;font-size:12.0pt;&quot;&gt;&lt;pre style=&quot;font-family:&#39;JetBrains Mono&#39;,monospace;font-size:12.0pt;&quot;&gt;&lt;pre style=&quot;font-family:&#39;JetBrains Mono&#39;,monospace;font-size:12.0pt;&quot;&gt;&lt;pre style=&quot;font-family:&#39;JetBrains Mono&#39;,monospace;font-size:12.0pt;&quot;&gt;&lt;div&gt;&lt;pre style=&quot;font-family:&#39;JetBrains Mono&#39;,monospace;font-size:12.0pt;&quot;&gt;input = input.ToLower();&lt;/pre&gt;&lt;/div&gt;&lt;/pre&gt;&lt;/pre&gt;&lt;/pre&gt;&lt;/pre&gt;&lt;/pre&gt;&lt;/pre&gt;&lt;/pre&gt;&lt;/div&gt;" style="rounded=1;whiteSpace=wrap;html=1;absoluteArcSize=1;arcSize=14;strokeWidth=2;" vertex="1" parent="1">
          <mxGeometry x="-630" y="-870" width="770" height="50" as="geometry" />
        </mxCell>
        <mxCell id="owQZtKoprVOSR1B6ug3N-37" value="&lt;pre style=&quot;font-family: &amp;quot;JetBrains Mono&amp;quot;, monospace; font-size: 12pt;&quot;&gt;input: string &lt;span style=&quot;font-size: 12pt; background-color: rgb(30, 30, 30); color: rgb(220, 220, 220); white-space-collapse: collapse;&quot;&gt;input&lt;/span&gt;&lt;/pre&gt;" style="text;html=1;align=center;verticalAlign=middle;resizable=0;points=[];autosize=1;strokeColor=none;fillColor=none;" vertex="1" parent="1">
          <mxGeometry x="-107.5" y="-1000" width="190" height="60" as="geometry" />
        </mxCell>
        <mxCell id="owQZtKoprVOSR1B6ug3N-38" value="&lt;pre style=&quot;font-family: &amp;quot;JetBrains Mono&amp;quot;, monospace; font-size: 12pt;&quot;&gt;output: Table&lt;/pre&gt;" style="text;html=1;align=center;verticalAlign=middle;resizable=0;points=[];autosize=1;strokeColor=none;fillColor=none;" vertex="1" parent="1">
          <mxGeometry x="-107.5" y="-950" width="140" height="60" as="geometry" />
        </mxCell>
        <mxCell id="owQZtKoprVOSR1B6ug3N-41" style="edgeStyle=orthogonalEdgeStyle;rounded=0;orthogonalLoop=1;jettySize=auto;html=1;exitX=0.5;exitY=1;exitDx=0;exitDy=0;" edge="1" parent="1" source="owQZtKoprVOSR1B6ug3N-39" target="owQZtKoprVOSR1B6ug3N-40">
          <mxGeometry relative="1" as="geometry" />
        </mxCell>
        <mxCell id="owQZtKoprVOSR1B6ug3N-39" value="&lt;div style=&quot;background-color: rgb(30, 30, 30); color: rgb(220, 220, 220);&quot;&gt;&lt;pre style=&quot;font-family:&#39;JetBrains Mono&#39;,monospace;font-size:12.0pt;&quot;&gt;&lt;pre style=&quot;font-family:&#39;JetBrains Mono&#39;,monospace;font-size:12.0pt;&quot;&gt;&lt;pre style=&quot;font-family:&#39;JetBrains Mono&#39;,monospace;font-size:12.0pt;&quot;&gt;&lt;pre style=&quot;font-family:&#39;JetBrains Mono&#39;,monospace;font-size:12.0pt;&quot;&gt;&lt;pre style=&quot;font-family:&#39;JetBrains Mono&#39;,monospace;font-size:12.0pt;&quot;&gt;&lt;pre style=&quot;font-family:&#39;JetBrains Mono&#39;,monospace;font-size:12.0pt;&quot;&gt;&lt;pre style=&quot;font-family:&#39;JetBrains Mono&#39;,monospace;font-size:12.0pt;&quot;&gt;&lt;pre style=&quot;font-family:&#39;JetBrains Mono&#39;,monospace;font-size:12.0pt;&quot;&gt;&lt;div&gt;&lt;pre style=&quot;font-family:&#39;JetBrains Mono&#39;,monospace;font-size:12.0pt;&quot;&gt;IndexForm = &lt;span style=&quot;color:#d69d85;&quot;&gt;&quot;&quot;&lt;/span&gt;;&lt;/pre&gt;&lt;/div&gt;&lt;/pre&gt;&lt;/pre&gt;&lt;/pre&gt;&lt;/pre&gt;&lt;/pre&gt;&lt;/pre&gt;&lt;/pre&gt;&lt;/pre&gt;&lt;/div&gt;" style="rounded=1;whiteSpace=wrap;html=1;absoluteArcSize=1;arcSize=14;strokeWidth=2;" vertex="1" parent="1">
          <mxGeometry x="-630" y="-780" width="770" height="50" as="geometry" />
        </mxCell>
        <mxCell id="owQZtKoprVOSR1B6ug3N-43" style="edgeStyle=orthogonalEdgeStyle;rounded=0;orthogonalLoop=1;jettySize=auto;html=1;exitX=0.5;exitY=1;exitDx=0;exitDy=0;entryX=0.5;entryY=0;entryDx=0;entryDy=0;" edge="1" parent="1" source="owQZtKoprVOSR1B6ug3N-40" target="owQZtKoprVOSR1B6ug3N-42">
          <mxGeometry relative="1" as="geometry" />
        </mxCell>
        <mxCell id="owQZtKoprVOSR1B6ug3N-40" value="&lt;div style=&quot;background-color:#1e1e1e;color:#dcdcdc&quot;&gt;&lt;pre style=&quot;font-family:&#39;JetBrains Mono&#39;,monospace;font-size:12.0pt;&quot;&gt;var variables = FormulaParser.FindAllPropositionalVariables(input);&lt;/pre&gt;&lt;/div&gt;" style="shape=process;whiteSpace=wrap;html=1;backgroundOutline=1;size=0.02875399361022364;" vertex="1" parent="1">
          <mxGeometry x="-576.25" y="-690" width="662.5" height="50" as="geometry" />
        </mxCell>
        <mxCell id="owQZtKoprVOSR1B6ug3N-46" style="edgeStyle=orthogonalEdgeStyle;rounded=0;orthogonalLoop=1;jettySize=auto;html=1;exitX=0.5;exitY=1;exitDx=0;exitDy=0;entryX=0.5;entryY=0;entryDx=0;entryDy=0;" edge="1" parent="1" source="owQZtKoprVOSR1B6ug3N-42" target="owQZtKoprVOSR1B6ug3N-44">
          <mxGeometry relative="1" as="geometry" />
        </mxCell>
        <mxCell id="owQZtKoprVOSR1B6ug3N-42" value="&lt;div style=&quot;background-color:#1e1e1e;color:#dcdcdc&quot;&gt;&lt;pre style=&quot;font-family:&#39;JetBrains Mono&#39;,monospace;font-size:12.0pt;&quot;&gt;&lt;div&gt;&lt;pre style=&quot;font-family:&#39;JetBrains Mono&#39;,monospace;font-size:12.0pt;&quot;&gt;Formula = FormulaParser.Parse(input);&lt;/pre&gt;&lt;/div&gt;&lt;/pre&gt;&lt;/div&gt;" style="shape=process;whiteSpace=wrap;html=1;backgroundOutline=1;size=0.02875399361022364;" vertex="1" parent="1">
          <mxGeometry x="-448.12" y="-600" width="406.25" height="50" as="geometry" />
        </mxCell>
        <mxCell id="owQZtKoprVOSR1B6ug3N-48" style="edgeStyle=orthogonalEdgeStyle;rounded=0;orthogonalLoop=1;jettySize=auto;html=1;exitX=0.5;exitY=1;exitDx=0;exitDy=0;entryX=0.5;entryY=0;entryDx=0;entryDy=0;" edge="1" parent="1" source="owQZtKoprVOSR1B6ug3N-44" target="owQZtKoprVOSR1B6ug3N-45">
          <mxGeometry relative="1" as="geometry" />
        </mxCell>
        <mxCell id="owQZtKoprVOSR1B6ug3N-44" value="&lt;div style=&quot;background-color:#1e1e1e;color:#dcdcdc&quot;&gt;&lt;pre style=&quot;font-family:&#39;JetBrains Mono&#39;,monospace;font-size:12.0pt;&quot;&gt;&lt;div&gt;&lt;pre style=&quot;font-family:&#39;JetBrains Mono&#39;,monospace;font-size:12.0pt;&quot;&gt;var options = OptionsBuilder.BuildOptions(variables);&lt;/pre&gt;&lt;/div&gt;&lt;/pre&gt;&lt;/div&gt;" style="shape=process;whiteSpace=wrap;html=1;backgroundOutline=1;size=0.02875399361022364;" vertex="1" parent="1">
          <mxGeometry x="-576.25" y="-500" width="662.5" height="50" as="geometry" />
        </mxCell>
        <mxCell id="owQZtKoprVOSR1B6ug3N-45" value="&lt;div style=&quot;background-color:#1e1e1e;color:#dcdcdc&quot;&gt;&lt;pre style=&quot;font-family:&#39;JetBrains Mono&#39;,monospace;font-size:12.0pt;&quot;&gt;&lt;pre style=&quot;font-family:&#39;JetBrains Mono&#39;,monospace;font-size:12.0pt;&quot;&gt;&lt;div&gt;&lt;pre style=&quot;font-family:&#39;JetBrains Mono&#39;,monospace;font-size:12.0pt;&quot;&gt;BuildBody(options);&lt;/pre&gt;&lt;/div&gt;&lt;/pre&gt;&lt;/pre&gt;&lt;/div&gt;" style="shape=process;whiteSpace=wrap;html=1;backgroundOutline=1;size=0.02875399361022364;" vertex="1" parent="1">
          <mxGeometry x="-353.12" y="-400" width="216.24" height="50" as="geometry" />
        </mxCell>
        <mxCell id="owQZtKoprVOSR1B6ug3N-49" value="end" style="strokeWidth=2;html=1;shape=mxgraph.flowchart.terminator;whiteSpace=wrap;" vertex="1" parent="1">
          <mxGeometry x="-305" y="-310" width="120" height="60" as="geometry" />
        </mxCell>
        <mxCell id="owQZtKoprVOSR1B6ug3N-50" style="edgeStyle=orthogonalEdgeStyle;rounded=0;orthogonalLoop=1;jettySize=auto;html=1;exitX=0.5;exitY=1;exitDx=0;exitDy=0;entryX=0.5;entryY=0;entryDx=0;entryDy=0;entryPerimeter=0;" edge="1" parent="1" source="owQZtKoprVOSR1B6ug3N-45" target="owQZtKoprVOSR1B6ug3N-49">
          <mxGeometry relative="1" as="geometry" />
        </mxCell>
        <mxCell id="owQZtKoprVOSR1B6ug3N-51" style="edgeStyle=orthogonalEdgeStyle;rounded=0;orthogonalLoop=1;jettySize=auto;html=1;exitX=0.5;exitY=1;exitDx=0;exitDy=0;exitPerimeter=0;entryX=0.5;entryY=0;entryDx=0;entryDy=0;entryPerimeter=0;" edge="1" parent="1" source="owQZtKoprVOSR1B6ug3N-3" target="owQZtKoprVOSR1B6ug3N-12">
          <mxGeometry relative="1" as="geometry" />
        </mxCell>
        <mxCell id="owQZtKoprVOSR1B6ug3N-216" style="edgeStyle=orthogonalEdgeStyle;rounded=0;orthogonalLoop=1;jettySize=auto;html=1;exitX=0.5;exitY=1;exitDx=0;exitDy=0;entryX=0.5;entryY=0;entryDx=0;entryDy=0;" edge="1" parent="1" source="owQZtKoprVOSR1B6ug3N-52" target="owQZtKoprVOSR1B6ug3N-164">
          <mxGeometry relative="1" as="geometry" />
        </mxCell>
        <mxCell id="owQZtKoprVOSR1B6ug3N-52" value="&lt;div style=&quot;background-color: rgb(30, 30, 30); color: rgb(220, 220, 220);&quot;&gt;&lt;pre style=&quot;font-family:&#39;JetBrains Mono&#39;,monospace;font-size:12.0pt;&quot;&gt;&lt;pre style=&quot;font-family:&#39;JetBrains Mono&#39;,monospace;font-size:12.0pt;&quot;&gt;&lt;pre style=&quot;font-family:&#39;JetBrains Mono&#39;,monospace;font-size:12.0pt;&quot;&gt;&lt;pre style=&quot;font-family:&#39;JetBrains Mono&#39;,monospace;font-size:12.0pt;&quot;&gt;&lt;pre style=&quot;font-family:&#39;JetBrains Mono&#39;,monospace;font-size:12.0pt;&quot;&gt;&lt;pre style=&quot;font-family:&#39;JetBrains Mono&#39;,monospace;font-size:12.0pt;&quot;&gt;&lt;pre style=&quot;font-family:&#39;JetBrains Mono&#39;,monospace;font-size:12.0pt;&quot;&gt;&lt;pre style=&quot;font-family:&#39;JetBrains Mono&#39;,monospace;font-size:12.0pt;&quot;&gt;&lt;div&gt;&lt;pre style=&quot;font-family:&#39;JetBrains Mono&#39;,monospace;font-size:12.0pt;&quot;&gt;options.Add([]);&lt;/pre&gt;&lt;/div&gt;&lt;/pre&gt;&lt;/pre&gt;&lt;/pre&gt;&lt;/pre&gt;&lt;/pre&gt;&lt;/pre&gt;&lt;/pre&gt;&lt;/pre&gt;&lt;/div&gt;" style="rounded=1;whiteSpace=wrap;html=1;absoluteArcSize=1;arcSize=14;strokeWidth=2;" vertex="1" parent="1">
          <mxGeometry x="-10" y="340" width="160" height="50" as="geometry" />
        </mxCell>
        <mxCell id="owQZtKoprVOSR1B6ug3N-163" style="edgeStyle=orthogonalEdgeStyle;rounded=0;orthogonalLoop=1;jettySize=auto;html=1;exitX=0.5;exitY=1;exitDx=0;exitDy=0;entryX=0.5;entryY=0;entryDx=0;entryDy=0;" edge="1" parent="1" source="owQZtKoprVOSR1B6ug3N-164" target="owQZtKoprVOSR1B6ug3N-167">
          <mxGeometry relative="1" as="geometry" />
        </mxCell>
        <mxCell id="owQZtKoprVOSR1B6ug3N-164" value="&lt;div style=&quot;background-color: rgb(30, 30, 30); color: rgb(220, 220, 220);&quot;&gt;&lt;pre style=&quot;font-family: &amp;quot;JetBrains Mono&amp;quot;, monospace; font-size: 12.8pt;&quot;&gt;&lt;span style=&quot;color: rgb(86, 156, 214);&quot;&gt;int &lt;/span&gt;&lt;span style=&quot;color: rgb(156, 220, 254);&quot;&gt;i &lt;/span&gt;&lt;font color=&quot;#dcdcdc&quot;&gt;= &lt;/font&gt;&lt;font color=&quot;#9cdcfe&quot;&gt;0&lt;/font&gt;&lt;font color=&quot;#dcdcdc&quot;&gt;;&lt;/font&gt;&lt;/pre&gt;&lt;/div&gt;" style="rounded=1;whiteSpace=wrap;html=1;absoluteArcSize=1;arcSize=14;strokeWidth=2;" vertex="1" parent="1">
          <mxGeometry x="-467.51" y="430" width="127.5" height="50" as="geometry" />
        </mxCell>
        <mxCell id="owQZtKoprVOSR1B6ug3N-211" style="edgeStyle=orthogonalEdgeStyle;rounded=0;orthogonalLoop=1;jettySize=auto;html=1;exitX=0.5;exitY=1;exitDx=0;exitDy=0;" edge="1" parent="1" source="owQZtKoprVOSR1B6ug3N-167" target="owQZtKoprVOSR1B6ug3N-190">
          <mxGeometry relative="1" as="geometry" />
        </mxCell>
        <mxCell id="owQZtKoprVOSR1B6ug3N-212" value="yes" style="edgeLabel;html=1;align=center;verticalAlign=middle;resizable=0;points=[];" vertex="1" connectable="0" parent="owQZtKoprVOSR1B6ug3N-211">
          <mxGeometry x="-0.7396" y="-2" relative="1" as="geometry">
            <mxPoint as="offset" />
          </mxGeometry>
        </mxCell>
        <mxCell id="owQZtKoprVOSR1B6ug3N-167" value="&lt;div style=&quot;background-color:#1e1e1e;color:#dcdcdc&quot;&gt;&lt;pre style=&quot;font-family:&#39;JetBrains Mono&#39;,monospace;font-size:12.8pt;&quot;&gt;&lt;pre style=&quot;font-family:&#39;JetBrains Mono&#39;,monospace;font-size:12.0pt;&quot;&gt;&lt;div&gt;&lt;pre style=&quot;font-family:&#39;JetBrains Mono&#39;,monospace;font-size:12.0pt;&quot;&gt;i &amp;lt; options.Count&lt;/pre&gt;&lt;/div&gt;&lt;/pre&gt;&lt;/pre&gt;&lt;/div&gt;" style="rhombus;whiteSpace=wrap;html=1;" vertex="1" parent="1">
          <mxGeometry x="-561.25" y="540" width="315" height="80" as="geometry" />
        </mxCell>
        <mxCell id="owQZtKoprVOSR1B6ug3N-168" style="edgeStyle=orthogonalEdgeStyle;rounded=0;orthogonalLoop=1;jettySize=auto;html=1;exitX=0.5;exitY=0;exitDx=0;exitDy=0;entryX=0;entryY=0.5;entryDx=0;entryDy=0;" edge="1" parent="1" source="owQZtKoprVOSR1B6ug3N-169" target="owQZtKoprVOSR1B6ug3N-167">
          <mxGeometry relative="1" as="geometry" />
        </mxCell>
        <mxCell id="owQZtKoprVOSR1B6ug3N-169" value="&lt;div style=&quot;background-color:#1e1e1e;color:#dcdcdc&quot;&gt;&lt;pre style=&quot;font-family:&#39;JetBrains Mono&#39;,monospace;font-size:12.8pt;&quot;&gt;&lt;div&gt;&lt;pre style=&quot;font-family:&#39;JetBrains Mono&#39;,monospace;font-size:12.8pt;&quot;&gt;i++;&lt;/pre&gt;&lt;/div&gt;&lt;/pre&gt;&lt;/div&gt;" style="rounded=1;whiteSpace=wrap;html=1;absoluteArcSize=1;arcSize=14;strokeWidth=2;" vertex="1" parent="1">
          <mxGeometry x="-818.75" y="600" width="80" height="50" as="geometry" />
        </mxCell>
        <mxCell id="owQZtKoprVOSR1B6ug3N-214" style="edgeStyle=orthogonalEdgeStyle;rounded=0;orthogonalLoop=1;jettySize=auto;html=1;exitX=0.5;exitY=1;exitDx=0;exitDy=0;entryX=0.5;entryY=0;entryDx=0;entryDy=0;" edge="1" parent="1" source="owQZtKoprVOSR1B6ug3N-190" target="owQZtKoprVOSR1B6ug3N-213">
          <mxGeometry relative="1" as="geometry" />
        </mxCell>
        <mxCell id="owQZtKoprVOSR1B6ug3N-190" value="&lt;div style=&quot;background-color:#1e1e1e;color:#dcdcdc&quot;&gt;&lt;pre style=&quot;font-family:&#39;JetBrains Mono&#39;,monospace;font-size:12.0pt;&quot;&gt;&lt;div&gt;&lt;pre style=&quot;font-family:&#39;JetBrains Mono&#39;,monospace;font-size:12.0pt;&quot;&gt;&lt;span style=&quot;color:#569cd6;&quot;&gt;bool &lt;/span&gt;evaluationResult = Formula.Evaluate(options[i]);&lt;/pre&gt;&lt;/div&gt;&lt;/pre&gt;&lt;/div&gt;" style="shape=process;whiteSpace=wrap;html=1;backgroundOutline=1;size=0.01630474878882521;" vertex="1" parent="1">
          <mxGeometry x="-663.75" y="680" width="520" height="30" as="geometry" />
        </mxCell>
        <mxCell id="owQZtKoprVOSR1B6ug3N-193" value="end" style="strokeWidth=2;html=1;shape=mxgraph.flowchart.terminator;whiteSpace=wrap;" vertex="1" parent="1">
          <mxGeometry x="-136.88" y="550" width="120" height="60" as="geometry" />
        </mxCell>
        <mxCell id="owQZtKoprVOSR1B6ug3N-194" style="edgeStyle=orthogonalEdgeStyle;rounded=0;orthogonalLoop=1;jettySize=auto;html=1;exitX=1;exitY=0.5;exitDx=0;exitDy=0;entryX=0;entryY=0.5;entryDx=0;entryDy=0;entryPerimeter=0;" edge="1" parent="1" source="owQZtKoprVOSR1B6ug3N-167" target="owQZtKoprVOSR1B6ug3N-193">
          <mxGeometry relative="1" as="geometry" />
        </mxCell>
        <mxCell id="owQZtKoprVOSR1B6ug3N-195" value="no" style="edgeLabel;html=1;align=center;verticalAlign=middle;resizable=0;points=[];" vertex="1" connectable="0" parent="owQZtKoprVOSR1B6ug3N-194">
          <mxGeometry x="-0.6928" relative="1" as="geometry">
            <mxPoint as="offset" />
          </mxGeometry>
        </mxCell>
        <mxCell id="owQZtKoprVOSR1B6ug3N-202" style="edgeStyle=orthogonalEdgeStyle;rounded=0;orthogonalLoop=1;jettySize=auto;html=1;exitX=1;exitY=0.5;exitDx=0;exitDy=0;" edge="1" parent="1">
          <mxGeometry relative="1" as="geometry">
            <Array as="points">
              <mxPoint x="3460" y="2590" />
              <mxPoint x="3460" y="2810" />
              <mxPoint x="3091" y="2810" />
            </Array>
            <mxPoint x="3264.38" y="2590" as="sourcePoint" />
          </mxGeometry>
        </mxCell>
        <mxCell id="owQZtKoprVOSR1B6ug3N-215" style="edgeStyle=orthogonalEdgeStyle;rounded=0;orthogonalLoop=1;jettySize=auto;html=1;exitX=0.5;exitY=1;exitDx=0;exitDy=0;entryX=0.5;entryY=1;entryDx=0;entryDy=0;" edge="1" parent="1" source="owQZtKoprVOSR1B6ug3N-213" target="owQZtKoprVOSR1B6ug3N-169">
          <mxGeometry relative="1" as="geometry">
            <Array as="points">
              <mxPoint x="-404" y="810" />
              <mxPoint x="-779" y="810" />
            </Array>
          </mxGeometry>
        </mxCell>
        <mxCell id="owQZtKoprVOSR1B6ug3N-213" value="&lt;div style=&quot;background-color:#1e1e1e;color:#dcdcdc&quot;&gt;&lt;pre style=&quot;font-family:&#39;JetBrains Mono&#39;,monospace;font-size:12.0pt;&quot;&gt;&lt;pre style=&quot;font-family:&#39;JetBrains Mono&#39;,monospace;font-size:12.0pt;&quot;&gt;&lt;div&gt;&lt;pre style=&quot;font-family:&#39;JetBrains Mono&#39;,monospace;font-size:12.0pt;&quot;&gt;IndexForm += ToString(evaluationResult);&lt;/pre&gt;&lt;/div&gt;&lt;/pre&gt;&lt;/pre&gt;&lt;/div&gt;" style="shape=process;whiteSpace=wrap;html=1;backgroundOutline=1;size=0.01630474878882521;" vertex="1" parent="1">
          <mxGeometry x="-596.25" y="745" width="385" height="30" as="geometry" />
        </mxCell>
        <mxCell id="owQZtKoprVOSR1B6ug3N-217" value="&lt;pre style=&quot;font-family: &amp;quot;JetBrains Mono&amp;quot;, monospace; font-size: 12pt;&quot;&gt;&lt;div style=&quot;background-color:#1e1e1e;color:#dcdcdc&quot;&gt;&lt;pre style=&quot;font-family:&#39;JetBrains Mono&#39;,monospace;font-size:12.0pt;&quot;&gt;&lt;div&gt;&lt;pre style=&quot;font-family:&#39;JetBrains Mono&#39;,monospace;font-size:12.0pt;&quot;&gt;ToString&lt;/pre&gt;&lt;/div&gt;&lt;/pre&gt;&lt;/div&gt;&lt;/pre&gt;" style="text;html=1;align=center;verticalAlign=middle;resizable=0;points=[];autosize=1;strokeColor=none;fillColor=none;" vertex="1" parent="1">
          <mxGeometry x="1000" y="-1060" width="90" height="60" as="geometry" />
        </mxCell>
        <mxCell id="owQZtKoprVOSR1B6ug3N-218" style="edgeStyle=orthogonalEdgeStyle;rounded=0;orthogonalLoop=1;jettySize=auto;html=1;exitX=0.5;exitY=1;exitDx=0;exitDy=0;exitPerimeter=0;entryX=0.5;entryY=0;entryDx=0;entryDy=0;" edge="1" parent="1" source="owQZtKoprVOSR1B6ug3N-219" target="owQZtKoprVOSR1B6ug3N-221">
          <mxGeometry relative="1" as="geometry" />
        </mxCell>
        <mxCell id="owQZtKoprVOSR1B6ug3N-219" value="begin" style="strokeWidth=2;html=1;shape=mxgraph.flowchart.terminator;whiteSpace=wrap;" vertex="1" parent="1">
          <mxGeometry x="795" y="-985" width="120" height="60" as="geometry" />
        </mxCell>
        <mxCell id="owQZtKoprVOSR1B6ug3N-221" value="&lt;div style=&quot;background-color: rgb(30, 30, 30); color: rgb(220, 220, 220);&quot;&gt;&lt;pre style=&quot;font-family:&#39;JetBrains Mono&#39;,monospace;font-size:12.0pt;&quot;&gt;&lt;pre style=&quot;font-family:&#39;JetBrains Mono&#39;,monospace;font-size:12.0pt;&quot;&gt;&lt;pre style=&quot;font-family:&#39;JetBrains Mono&#39;,monospace;font-size:12.0pt;&quot;&gt;&lt;pre style=&quot;font-family:&#39;JetBrains Mono&#39;,monospace;font-size:12.0pt;&quot;&gt;&lt;pre style=&quot;font-family:&#39;JetBrains Mono&#39;,monospace;font-size:12.0pt;&quot;&gt;&lt;pre style=&quot;font-family:&#39;JetBrains Mono&#39;,monospace;font-size:12.0pt;&quot;&gt;&lt;pre style=&quot;font-family:&#39;JetBrains Mono&#39;,monospace;font-size:12.0pt;&quot;&gt;&lt;pre style=&quot;font-family:&#39;JetBrains Mono&#39;,monospace;font-size:12.0pt;&quot;&gt;&lt;div&gt;&lt;pre style=&quot;font-family:&#39;JetBrains Mono&#39;,monospace;font-size:12.0pt;&quot;&gt;&lt;span style=&quot;color:#569cd6;&quot;&gt;string &lt;/span&gt;result = &lt;span style=&quot;color:#d69d85;&quot;&gt;&quot;0&quot;&lt;/span&gt;;&lt;/pre&gt;&lt;/div&gt;&lt;/pre&gt;&lt;/pre&gt;&lt;/pre&gt;&lt;/pre&gt;&lt;/pre&gt;&lt;/pre&gt;&lt;/pre&gt;&lt;/pre&gt;&lt;/div&gt;" style="rounded=1;whiteSpace=wrap;html=1;absoluteArcSize=1;arcSize=14;strokeWidth=2;" vertex="1" parent="1">
          <mxGeometry x="740" y="-880" width="230" height="50" as="geometry" />
        </mxCell>
        <mxCell id="owQZtKoprVOSR1B6ug3N-222" value="&lt;pre style=&quot;font-family: &amp;quot;JetBrains Mono&amp;quot;, monospace; font-size: 12pt;&quot;&gt;input: bool &lt;span style=&quot;font-size: 12pt; background-color: rgb(30, 30, 30); color: rgb(220, 220, 220); white-space-collapse: collapse;&quot;&gt;input&lt;/span&gt;&lt;/pre&gt;" style="text;html=1;align=center;verticalAlign=middle;resizable=0;points=[];autosize=1;strokeColor=none;fillColor=none;" vertex="1" parent="1">
          <mxGeometry x="1000" y="-1010" width="170" height="60" as="geometry" />
        </mxCell>
        <mxCell id="owQZtKoprVOSR1B6ug3N-223" value="&lt;pre style=&quot;font-family: &amp;quot;JetBrains Mono&amp;quot;, monospace; font-size: 12pt;&quot;&gt;output: string result&lt;/pre&gt;" style="text;html=1;align=center;verticalAlign=middle;resizable=0;points=[];autosize=1;strokeColor=none;fillColor=none;" vertex="1" parent="1">
          <mxGeometry x="1000" y="-970" width="210" height="60" as="geometry" />
        </mxCell>
        <mxCell id="owQZtKoprVOSR1B6ug3N-233" value="end" style="strokeWidth=2;html=1;shape=mxgraph.flowchart.terminator;whiteSpace=wrap;" vertex="1" parent="1">
          <mxGeometry x="795" y="-540" width="120" height="60" as="geometry" />
        </mxCell>
        <mxCell id="owQZtKoprVOSR1B6ug3N-239" style="edgeStyle=orthogonalEdgeStyle;rounded=0;orthogonalLoop=1;jettySize=auto;html=1;exitX=1;exitY=0.5;exitDx=0;exitDy=0;exitPerimeter=0;" edge="1" parent="1" source="owQZtKoprVOSR1B6ug3N-235" target="owQZtKoprVOSR1B6ug3N-238">
          <mxGeometry relative="1" as="geometry" />
        </mxCell>
        <mxCell id="owQZtKoprVOSR1B6ug3N-240" value="yes" style="edgeLabel;html=1;align=center;verticalAlign=middle;resizable=0;points=[];" vertex="1" connectable="0" parent="owQZtKoprVOSR1B6ug3N-239">
          <mxGeometry x="-0.3236" y="-3" relative="1" as="geometry">
            <mxPoint x="-1" as="offset" />
          </mxGeometry>
        </mxCell>
        <mxCell id="owQZtKoprVOSR1B6ug3N-235" value="&lt;div style=&quot;background-color:#1e1e1e;color:#dcdcdc&quot;&gt;&lt;pre style=&quot;font-family:&#39;JetBrains Mono&#39;,monospace;font-size:12.0pt;&quot;&gt;input&lt;/pre&gt;&lt;/div&gt;" style="strokeWidth=2;html=1;shape=mxgraph.flowchart.decision;whiteSpace=wrap;" vertex="1" parent="1">
          <mxGeometry x="697.5" y="-770" width="315" height="100" as="geometry" />
        </mxCell>
        <mxCell id="owQZtKoprVOSR1B6ug3N-236" style="edgeStyle=orthogonalEdgeStyle;rounded=0;orthogonalLoop=1;jettySize=auto;html=1;exitX=0.5;exitY=1;exitDx=0;exitDy=0;entryX=0.5;entryY=0;entryDx=0;entryDy=0;entryPerimeter=0;" edge="1" parent="1" source="owQZtKoprVOSR1B6ug3N-221" target="owQZtKoprVOSR1B6ug3N-235">
          <mxGeometry relative="1" as="geometry" />
        </mxCell>
        <mxCell id="owQZtKoprVOSR1B6ug3N-238" value="&lt;div style=&quot;background-color: rgb(30, 30, 30); color: rgb(220, 220, 220);&quot;&gt;&lt;pre style=&quot;font-family:&#39;JetBrains Mono&#39;,monospace;font-size:12.0pt;&quot;&gt;&lt;pre style=&quot;font-family:&#39;JetBrains Mono&#39;,monospace;font-size:12.0pt;&quot;&gt;&lt;pre style=&quot;font-family:&#39;JetBrains Mono&#39;,monospace;font-size:12.0pt;&quot;&gt;&lt;pre style=&quot;font-family:&#39;JetBrains Mono&#39;,monospace;font-size:12.0pt;&quot;&gt;&lt;pre style=&quot;font-family:&#39;JetBrains Mono&#39;,monospace;font-size:12.0pt;&quot;&gt;&lt;pre style=&quot;font-family:&#39;JetBrains Mono&#39;,monospace;font-size:12.0pt;&quot;&gt;&lt;pre style=&quot;font-family:&#39;JetBrains Mono&#39;,monospace;font-size:12.0pt;&quot;&gt;&lt;pre style=&quot;font-family:&#39;JetBrains Mono&#39;,monospace;font-size:12.0pt;&quot;&gt;&lt;div&gt;&lt;pre style=&quot;font-family:&#39;JetBrains Mono&#39;,monospace;font-size:12.0pt;&quot;&gt;&lt;span style=&quot;color:#569cd6;&quot;&gt;string &lt;/span&gt;result = &lt;span style=&quot;color:#d69d85;&quot;&gt;&quot;1&quot;&lt;/span&gt;;&lt;/pre&gt;&lt;/div&gt;&lt;/pre&gt;&lt;/pre&gt;&lt;/pre&gt;&lt;/pre&gt;&lt;/pre&gt;&lt;/pre&gt;&lt;/pre&gt;&lt;/pre&gt;&lt;/div&gt;" style="rounded=1;whiteSpace=wrap;html=1;absoluteArcSize=1;arcSize=14;strokeWidth=2;" vertex="1" parent="1">
          <mxGeometry x="990" y="-630" width="230" height="50" as="geometry" />
        </mxCell>
        <mxCell id="owQZtKoprVOSR1B6ug3N-241" style="edgeStyle=orthogonalEdgeStyle;rounded=0;orthogonalLoop=1;jettySize=auto;html=1;exitX=0.5;exitY=1;exitDx=0;exitDy=0;exitPerimeter=0;entryX=0.5;entryY=0;entryDx=0;entryDy=0;entryPerimeter=0;" edge="1" parent="1" source="owQZtKoprVOSR1B6ug3N-235" target="owQZtKoprVOSR1B6ug3N-233">
          <mxGeometry relative="1" as="geometry" />
        </mxCell>
        <mxCell id="owQZtKoprVOSR1B6ug3N-243" value="no" style="edgeLabel;html=1;align=center;verticalAlign=middle;resizable=0;points=[];" vertex="1" connectable="0" parent="owQZtKoprVOSR1B6ug3N-241">
          <mxGeometry x="-0.671" y="1" relative="1" as="geometry">
            <mxPoint as="offset" />
          </mxGeometry>
        </mxCell>
        <mxCell id="owQZtKoprVOSR1B6ug3N-242" style="edgeStyle=orthogonalEdgeStyle;rounded=0;orthogonalLoop=1;jettySize=auto;html=1;exitX=0.5;exitY=1;exitDx=0;exitDy=0;entryX=0.5;entryY=0;entryDx=0;entryDy=0;entryPerimeter=0;" edge="1" parent="1" source="owQZtKoprVOSR1B6ug3N-238" target="owQZtKoprVOSR1B6ug3N-233">
          <mxGeometry relative="1" as="geometry" />
        </mxCell>
      </root>
    </mxGraphModel>
  </diagram>
</mxfile>
